<?xml version="1.0" standalone="no"?><!DOCTYPE svg PUBLIC "-//W3C//DTD SVG 1.1//EN" "http://www.w3.org/Graphics/SVG/1.1/DTD/svg11.dtd"><svg t="1541384793386" class="icon" style="" viewBox="0 0 1024 1024" version="1.1" xmlns="http://www.w3.org/2000/svg" p-id="2170" xmlns:xlink="http://www.w3.org/1999/xlink" width="48" height="48"><defs><style type="text/css"></style></defs><path d="M536.544 679.208c-74.248 0-134.656-60.424-134.656-134.648 0-74.248 60.4-134.664 134.656-134.664 74.224 0 134.648 60.4 134.648 134.664 0 74.256-60.392 134.648-134.648 134.648z" p-id="2171" fill="#2c2c2c"></path><path d="M840 548C840 382.32 705.688 248 540 248 374.32 248 240 382.32 240 548 240 713.688 374.32 848 540 848c165.688 0 300-134.312 300-300z m-300 260.256c-143.504 0-260.256-116.76-260.256-260.256 0-143.504 116.744-260.256 260.256-260.256 143.504 0 260.256 116.752 260.256 260.256 0 143.504-116.752 260.256-260.256 260.256z" p-id="2172" fill="#2c2c2c"></path></svg>